<?xml version="1.0" encoding="utf-8"?>
<!-- Generator: Adobe Illustrator 18.1.0, SVG Export Plug-In . SVG Version: 6.00 Build 0)  -->
<svg version="1.1" baseProfile="tiny" id="Layer_1" xmlns="http://www.w3.org/2000/svg" xmlns:xlink="http://www.w3.org/1999/xlink"
	 x="0px" y="0px" width="152px" height="68px" viewBox="0 0 152 68" xml:space="preserve">
<path fill="none" stroke="#B13B0B" stroke-miterlimit="10" d="M10.5,1.1h131c5.5,0,10,4.5,10,10v29c0,5.5-4.5,10-10,10H44L26.6,66.9
	V50.1H10.5c-5.5,0-10-4.5-10-10v-29C0.5,5.6,5,1.1,10.5,1.1z"/>
<g>
	<path fill="#06434C" d="M23.1,15.4c0.7,0.3,1.5,0.7,2.2,1.3l-0.9,1.1c-0.7-0.5-1.3-0.9-1.9-1.1c-0.6-0.2-1.3-0.3-2-0.3
		c-1.8,0-3.3,0.7-4.4,2.1c-1.1,1.4-1.7,3.5-1.7,6.4c0,1.9,0.3,3.4,0.8,4.7c0.5,1.3,1.2,2.2,2.1,2.8c0.9,0.6,1.9,0.9,3.1,0.9
		c0.9,0,1.7-0.1,2.3-0.4c0.6-0.3,1.3-0.7,1.9-1.2l0.9,1.1c-1.4,1.3-3.1,2-5.2,2c-1.5,0-2.8-0.4-4-1.1c-1.2-0.8-2.1-1.9-2.7-3.4
		c-0.7-1.5-1-3.3-1-5.4s0.3-3.9,1-5.4c0.7-1.5,1.6-2.6,2.8-3.4c1.2-0.8,2.5-1.1,3.9-1.1C21.5,15,22.4,15.2,23.1,15.4z"/>
	<path fill="#06434C" d="M38.6,21.5c1.1,1.3,1.6,3.2,1.6,5.6c0,2.4-0.6,4.2-1.7,5.6c-1.1,1.4-2.6,2.1-4.5,2.1c-1.9,0-3.5-0.7-4.5-2
		c-1.1-1.4-1.6-3.2-1.6-5.6c0-1.5,0.3-2.9,0.8-4.1c0.5-1.2,1.2-2,2.2-2.7c0.9-0.6,2-0.9,3.3-0.9C36,19.5,37.5,20.2,38.6,21.5z
		 M30.7,22.5c-0.8,1.1-1.2,2.6-1.2,4.7c0,2,0.4,3.6,1.2,4.6c0.8,1.1,1.9,1.6,3.3,1.6c1.4,0,2.5-0.5,3.3-1.6c0.8-1.1,1.2-2.6,1.2-4.7
		c0-2-0.4-3.6-1.2-4.6c-0.8-1.1-1.9-1.6-3.3-1.6C32.6,20.9,31.5,21.5,30.7,22.5z"/>
	<path fill="#06434C" d="M54,20.7c0.7,0.8,1,1.9,1,3.3v10.5h-1.6V24.3c0-1.2-0.2-2-0.7-2.6c-0.5-0.5-1.2-0.8-2.1-0.8
		c-0.9,0-1.8,0.3-2.5,0.8c-0.7,0.5-1.4,1.3-2.1,2.3v10.6h-1.6V19.9h1.4l0.1,2.5c1.3-1.9,3-2.8,4.9-2.8C52.3,19.5,53.3,19.9,54,20.7z
		"/>
	<path fill="#06434C" d="M64.2,34.8c-1.1,0-2-0.3-2.6-1c-0.6-0.7-1-1.6-1-2.9v-9.8h-2.5v-1.3h2.5v-3.5l1.6-0.2v3.7H66l-0.2,1.3h-3.6
		v9.7c0,0.9,0.2,1.5,0.5,1.9c0.4,0.4,0.9,0.6,1.6,0.6c0.8,0,1.5-0.2,2.2-0.7l0.6,1.1C66.3,34.5,65.3,34.8,64.2,34.8z"/>
	<path fill="#06434C" d="M80,32.9c0.2,0.3,0.5,0.6,0.9,0.8l-0.4,1.1c-0.7-0.1-1.2-0.4-1.6-0.8c-0.4-0.4-0.6-0.9-0.7-1.7
		c-1.1,1.6-2.6,2.4-4.6,2.4c-1.4,0-2.5-0.4-3.3-1.2c-0.8-0.8-1.2-1.9-1.2-3.2c0-1.5,0.5-2.7,1.6-3.5c1.1-0.8,2.6-1.2,4.5-1.2h2.8
		v-1.4c0-1.2-0.3-2-0.8-2.6c-0.5-0.5-1.4-0.8-2.6-0.8c-1.1,0-2.4,0.3-4,0.8l-0.4-1.2c1.6-0.7,3.2-1,4.6-1c3.2,0,4.8,1.5,4.8,4.6v7.1
		C79.7,32,79.8,32.6,80,32.9z M78.1,30.9v-4h-2.5c-1.5,0-2.6,0.3-3.4,0.9c-0.8,0.6-1.2,1.4-1.2,2.6c0,1,0.3,1.8,0.8,2.3
		c0.5,0.5,1.3,0.8,2.3,0.8C75.8,33.5,77.1,32.6,78.1,30.9z"/>
	<path fill="#06434C" d="M92.3,19.9c0.7,0.2,1.3,0.6,1.9,1.1l-0.8,1.1c-0.5-0.4-1-0.7-1.5-0.9c-0.5-0.2-1.1-0.3-1.8-0.3
		c-1.4,0-2.5,0.5-3.3,1.6c-0.8,1.1-1.2,2.6-1.2,4.7c0,2,0.4,3.6,1.2,4.6c0.8,1,1.9,1.5,3.3,1.5c0.7,0,1.2-0.1,1.8-0.3
		c0.5-0.2,1.1-0.5,1.6-1l0.8,1.1c-1.2,1-2.6,1.6-4.2,1.6c-1.3,0-2.3-0.3-3.3-0.9c-0.9-0.6-1.7-1.5-2.2-2.6c-0.5-1.1-0.8-2.5-0.8-4
		c0-1.5,0.3-2.9,0.8-4.1s1.2-2.1,2.2-2.7s2-1,3.2-1C90.9,19.5,91.6,19.7,92.3,19.9z"/>
	<path fill="#06434C" d="M102.6,34.8c-1.1,0-2-0.3-2.6-1c-0.6-0.7-1-1.6-1-2.9v-9.8h-2.5v-1.3h2.5v-3.5l1.6-0.2v3.7h3.8l-0.2,1.3
		h-3.6v9.7c0,0.9,0.2,1.5,0.5,1.9c0.4,0.4,0.9,0.6,1.6,0.6c0.8,0,1.5-0.2,2.2-0.7l0.6,1.1C104.8,34.5,103.8,34.8,102.6,34.8z"/>
	<path fill="#06434C" d="M125.3,34.5l-0.1-2.6c-1.2,1.9-2.8,2.9-4.8,2.9c-1.3,0-2.3-0.4-3.1-1.2s-1.1-1.9-1.1-3.3V19.9h1.6v10.3
		c0,1.1,0.2,2,0.7,2.5c0.5,0.5,1.2,0.8,2.2,0.8c1.7,0,3.1-1,4.3-3V19.9h1.6v14.6H125.3z"/>
	<path fill="#06434C" d="M138.3,20c0.7,0.3,1.5,0.7,2.2,1.2l-0.8,1.1c-0.7-0.5-1.3-0.8-1.9-1c-0.6-0.2-1.2-0.3-2-0.3
		c-1,0-1.8,0.2-2.4,0.7c-0.6,0.4-0.9,1-0.9,1.8c0,0.7,0.3,1.3,0.8,1.7c0.5,0.4,1.4,0.8,2.8,1.1c1.7,0.4,2.9,1,3.6,1.6
		s1.1,1.6,1.1,2.8c0,1.3-0.5,2.3-1.5,3.1c-1,0.8-2.3,1.1-3.8,1.1c-1.1,0-2.1-0.2-2.9-0.5c-0.8-0.3-1.6-0.8-2.3-1.4l0.9-1.1
		c0.6,0.5,1.3,0.9,2,1.2c0.7,0.3,1.5,0.4,2.3,0.4c1.1,0,2-0.2,2.6-0.7c0.7-0.5,1-1.2,1-2c0-0.6-0.1-1.1-0.3-1.5
		c-0.2-0.4-0.6-0.7-1.1-1c-0.5-0.3-1.3-0.5-2.4-0.8c-1.5-0.4-2.7-0.9-3.3-1.6c-0.7-0.6-1-1.5-1-2.5c0-0.7,0.2-1.4,0.6-2
		c0.4-0.6,1-1,1.8-1.4c0.7-0.3,1.6-0.5,2.5-0.5C136.7,19.5,137.5,19.7,138.3,20z"/>
</g>
</svg>
