<?xml version="1.0" encoding="utf-8"?>
<!-- Generator: Adobe Illustrator 18.1.0, SVG Export Plug-In . SVG Version: 6.00 Build 0)  -->
<svg version="1.1" baseProfile="tiny" id="Layer_1" xmlns="http://www.w3.org/2000/svg" xmlns:xlink="http://www.w3.org/1999/xlink"
	 x="0px" y="0px" width="40px" height="40px" viewBox="0 0 40 40" xml:space="preserve">
<g>
	<g>
		<path fill="#707070" d="M34.3,24.2L16.5,6.5l0.9-0.2c0.9-0.2,1.9-0.3,2.8-0.3c8,0,14.5,6.5,14.5,14.4c0,0.9-0.1,1.9-0.3,2.8
			L34.3,24.2z M18.6,7.2l15.1,15c0.1-0.5,0.1-1.1,0.1-1.7c0-7.4-6.1-13.4-13.5-13.4C19.7,7.1,19.1,7.1,18.6,7.2z"/>
		<path fill="#707070" d="M13.9,24.2"/>
		<path fill="#707070" d="M23.9,34.5l-0.2-1c2.3-0.6,4.4-1.8,6.1-3.4l-19.1-19c-1.7,1.7-2.8,3.8-3.4,6l-1-0.3c0.7-2.6,2.1-5,4.1-6.8
			l0.4-0.3l20.5,20.4l-0.3,0.4C28.9,32.4,26.5,33.8,23.9,34.5z"/>
		<path fill="#707070" d="M20.2,34.9c-8,0-14.5-6.5-14.5-14.4c0-1.2,0.2-2.4,0.5-3.6l1,0.3c-0.3,1.1-0.4,2.2-0.4,3.4
			c0,7.4,6.1,13.4,13.5,13.4c0.8,0,1.7-0.1,2.5-0.2l-8.3-8.2l0.7-0.7l9.5,9.5l-0.9,0.2C22.7,34.8,21.5,34.9,20.2,34.9z"/>
		<path fill="#707070" d="M30.4,30.8L9.9,10.4l0.4-0.4c2-1.9,4.5-3.2,7.2-3.7l0.3,0L34.5,23l-0.1,0.3c-0.5,2.7-1.8,5.1-3.7,7.1
			L30.4,30.8z M11.3,10.4l19,18.9c1.5-1.7,2.6-3.8,3.1-6l-16.1-16C15.1,7.9,13,8.9,11.3,10.4z"/>
		
			<rect x="24.7" y="13.3" transform="matrix(0.7061 0.7081 -0.7081 0.7061 25.4125 -10.3597)" fill="#707070" width="1" height="24.2"/>
		<path fill="#707070" d="M9.7,20.3c-0.1,0-0.3,0-0.4-0.1c-0.2-0.2-0.2-0.5,0-0.7l13-12.9c0.2-0.2,0.5-0.2,0.7,0
			c0.2,0.2,0.2,0.5,0,0.7L10,20.1C9.9,20.2,9.8,20.3,9.7,20.3z"/>
		<rect x="19.4" y="6.2" transform="matrix(0.7032 0.711 -0.711 0.7032 20.2181 -8.1711)" fill="#707070" width="1" height="27.8"/>
	</g>
	<path fill="#707070" d="M11.1,5.1c-3.2,0-5.8,2.6-5.8,5.8c0,0.1,0,0.1,0,0.2c0,0.6,0.1,1.2,0.3,1.7c1.2,4.1,5.5,9.4,5.5,9.4
		s4.2-5.3,5.5-9.4c0.2-0.6,0.3-1.1,0.3-1.8c0-0.1,0-0.1,0-0.2C16.9,7.7,14.3,5.1,11.1,5.1z M11.1,13.7c-1.6,0-2.8-1.3-2.8-2.8
		S9.5,8,11.1,8s2.9,1.3,2.9,2.8S12.7,13.7,11.1,13.7z"/>
</g>
</svg>
