<?xml version="1.0" encoding="utf-8"?>
<!-- Generator: Adobe Illustrator 18.1.0, SVG Export Plug-In . SVG Version: 6.00 Build 0)  -->
<svg version="1.1" baseProfile="tiny" id="Layer_1" xmlns="http://www.w3.org/2000/svg" xmlns:xlink="http://www.w3.org/1999/xlink"
	 x="0px" y="0px" width="40px" height="40px" viewBox="0 0 40 40" xml:space="preserve">
<g>
	<path fill="#707070" d="M20.2,36.9L20.2,36.9l-0.3,0c-4,0-7.4-0.7-10.2-1.9c-2.9-1.3-4.2-2.9-4-4.7c0.7-4.7,4.4-8.7,9.4-10.4
		c-1.9-2.4-2.8-5.9-2.8-8.3c0-2.2,1-4.5,2.6-6.2c1.5-1.5,3.3-2.3,5.2-2.3c1.9,0,3.7,0.8,5.2,2.3c1.6,1.6,2.6,3.9,2.6,6.2
		c0,2.4-1,5.9-2.8,8.3c5,1.7,8.7,5.8,9.5,10.5c0.3,1.9-1.1,3.5-4.3,4.9C27.4,36.3,24,36.9,20.2,36.9z M20.1,4.1
		c-1.6,0-3.2,0.7-4.5,2c-1.5,1.5-2.3,3.5-2.3,5.4c0,2.4,1.1,6,3.1,8.2l0.5,0.6l-0.8,0.2c-5,1.5-8.7,5.4-9.4,9.9
		c-0.3,1.6,1.7,2.9,3.4,3.6c2.7,1.2,5.9,1.8,9.8,1.8l0.3,0c3.7,0,7-0.6,9.6-1.7c1.8-0.8,4-2.1,3.7-3.8c-0.7-4.5-4.4-8.4-9.5-9.9
		l-0.8-0.2l0.5-0.6c2-2.2,3-5.8,3-8.2c0-1.9-0.9-4-2.3-5.4C23.2,4.8,21.7,4.1,20.1,4.1z M20,33.9l-3.2-1.3l0.1-0.4
		c0.6-2.2,1.6-5.8,1.7-6.6c-0.5-0.8-1.4-2.3-1.6-2.9l-0.4-1.3l1.2,0.8c1.1,0.7,3.3,0.7,4.4,0l1.2-0.8L23,22.7
		c-0.1,0.5-0.7,1.4-1.6,3c0.1,0.8,1,4.3,1.6,6.6l0.1,0.4L20,33.9z M18,32l2,0.8l1.9-0.8c-1.6-6.5-1.6-6.5-1.4-6.8
		c0.5-0.8,0.8-1.3,1-1.8c-0.9,0.2-2,0.2-2.9,0c0.3,0.6,0.7,1.2,1,1.8C19.7,25.5,19.7,25.6,18,32z"/>
</g>
</svg>
