<?xml version="1.0" encoding="utf-8"?>
<!-- Generator: Adobe Illustrator 18.1.0, SVG Export Plug-In . SVG Version: 6.00 Build 0)  -->
<svg version="1.1" baseProfile="tiny" id="Layer_1" xmlns="http://www.w3.org/2000/svg" xmlns:xlink="http://www.w3.org/1999/xlink"
	 x="0px" y="0px" width="40px" height="40px" viewBox="0 0 40 40" xml:space="preserve">
<g>
	<g>
		<path fill="#707070" d="M31.2,6c1.1,0,2,0.6,2,1.7v24.2c0,1.1-0.9,2.2-2,2.2H9.7c-1.1,0-2-1.1-2-2.2V30H11c1.6,0,2.9-1.4,2.9-3
			c0-1.6-1.3-3-2.9-3H7.7v-1.2H11c1.6,0,2.9-1.2,2.9-2.8s-1.3-2.8-2.9-2.8H7.7v-1.6H11c1.6,0,2.9-1.2,2.9-2.8S12.6,10,11,10H7.7V7.7
			c0-1.1,0.9-1.7,2-1.7H31.2 M31.2,5H9.7c-1.7,0-3,1.1-3,2.7V10v1h1H11c1.1,0,1.9,0.8,1.9,1.8c0,1-0.9,1.8-1.9,1.8H7.7h-1v1v1.6v1h1
			H11c1.1,0,1.9,0.8,1.9,1.8c0,1-0.9,1.8-1.9,1.8H7.7h-1v1v1.2v1h1H11c1.1,0,1.9,0.9,1.9,2s-0.9,2-1.9,2H7.7h-1v1v1.9
			c0,1.7,1.4,3.2,3,3.2h21.6c1.6,0,3-1.5,3-3.2V7.7C34.2,6.1,33,5,31.2,5L31.2,5z"/>
	</g>
	<g>
		<path fill="#707070" d="M21.9,26.2L21.9,26.2c-1.5,0-2.8-0.2-3.8-0.7c-1.5-0.7-1.7-1.4-1.6-2c0.3-1.6,1.4-3,3.1-3.7
			c-0.6-0.9-0.8-2-0.8-2.7c0-0.8,0.4-1.7,1-2.3c1.1-1.1,3-1.2,4.1,0c0.6,0.6,1,1.5,1,2.3c0,0.8-0.3,1.8-0.8,2.7
			c1.7,0.7,2.9,2.1,3.1,3.7c0.1,0.6-0.1,1.4-1.7,2C24.5,26,23.3,26.2,21.9,26.2z M21.9,14.8c-0.5,0-1,0.2-1.3,0.6
			c-0.4,0.4-0.7,1.1-0.7,1.6c0,0.8,0.3,1.9,1,2.6l0.5,0.6l-0.8,0.2c-1.6,0.5-2.8,1.7-3.1,3.2c0,0.3,0.3,0.6,1,0.9
			c0.9,0.4,2,0.6,3.3,0.6l0.1,0.5v-0.5c1.3,0,2.4-0.2,3.3-0.6c0.7-0.3,1.1-0.7,1.1-0.9c-0.2-1.4-1.4-2.7-3.1-3.2l-0.8-0.2l0.5-0.6
			c0.6-0.7,1-1.9,1-2.6c0-0.6-0.3-1.2-0.7-1.6C22.8,15,22.3,14.8,21.9,14.8z"/>
	</g>
	<path fill="#707070" d="M10.3,13.2H6.3c-0.3,0-0.5-0.2-0.5-0.5s0.2-0.5,0.5-0.5h4.1c0.3,0,0.5,0.2,0.5,0.5S10.6,13.2,10.3,13.2z"/>
	<path fill="#707070" d="M10.3,20.4H6.3c-0.3,0-0.5-0.2-0.5-0.5c0-0.3,0.2-0.5,0.5-0.5h4.1c0.3,0,0.5,0.2,0.5,0.5
		C10.8,20.2,10.6,20.4,10.3,20.4z"/>
	<path fill="#707070" d="M10.3,27.6H6.3c-0.3,0-0.5-0.2-0.5-0.5c0-0.3,0.2-0.5,0.5-0.5h4.1c0.3,0,0.5,0.2,0.5,0.5
		C10.8,27.4,10.6,27.6,10.3,27.6z"/>
</g>
</svg>
