<?xml version="1.0" encoding="utf-8"?>
<!-- Generator: Adobe Illustrator 18.1.0, SVG Export Plug-In . SVG Version: 6.00 Build 0)  -->
<svg version="1.1" baseProfile="tiny" id="Layer_1" xmlns="http://www.w3.org/2000/svg" xmlns:xlink="http://www.w3.org/1999/xlink"
	 x="0px" y="0px" width="40px" height="40px" viewBox="0 0 40 40" xml:space="preserve">
<g>
	<path fill="#707070" d="M20.6,35.7c-8.5,0-15.5-7-15.5-15.5c0-8.5,7-15.5,15.5-15.5c8.5,0,15.5,7,15.5,15.5
		C36.1,28.7,29.2,35.7,20.6,35.7z M20.6,5.7c-8,0-14.5,6.5-14.5,14.5c0,8,6.5,14.5,14.5,14.5c8,0,14.5-6.5,14.5-14.5
		C35.1,12.2,28.6,5.7,20.6,5.7z"/>
	<g>
		<path fill="#707070" d="M17.5,27.9c-2.1,0-4.1-0.6-5.8-1.7l-1.8-1.2l2.1,0.2c1.4,0.2,2.8-0.1,4-0.7c-1.2-0.4-2.1-1.4-2.5-2.6
			l-0.2-0.8l0.6,0.1c-0.8-0.7-1.3-1.8-1.3-3.1h0c0,0,0,0,0,0h0.7c-0.6-0.7-1-1.6-1-2.5c0-0.8,0.2-1.5,0.5-2.1l0.4-0.6l0.5,0.6
			c1.6,2,3.9,3.2,6.4,3.5c0-0.1,0-0.2,0-0.3c0-2.3,1.8-4.1,4.1-4.1c1,0,2,0.4,2.8,1.1c0.7-0.2,1.3-0.4,1.9-0.8l1.1-0.7l-0.4,1.3
			c-0.1,0.3-0.2,0.6-0.4,0.9c0.1,0,0.2-0.1,0.2-0.1l1.6-0.7l-1,1.4c-0.5,0.7-1.1,1.3-1.7,1.8c0,0.1,0,0.2,0,0.2
			C28.3,22.5,24.3,27.9,17.5,27.9z M14,26.3c1.1,0.4,2.3,0.7,3.5,0.7c6.1,0,9.8-5,9.8-9.8c0-0.1,0-0.3,0-0.4l0-0.3l0.2-0.2
			c0.2-0.1,0.4-0.3,0.6-0.5c-0.2,0-0.3,0.1-0.5,0.1l-2.3,0.2l2-1.2c0.2-0.1,0.4-0.3,0.6-0.4c-0.3,0.1-0.6,0.2-0.9,0.2l-0.3,0.1
			l-0.2-0.2c-0.6-0.6-1.4-1-2.3-1c-1.7,0-3.1,1.4-3.1,3.1c0,0.2,0,0.5,0.1,0.7l0.1,0.6l-0.6,0c-2.8-0.1-5.3-1.3-7.2-3.3
			c-0.1,0.3-0.1,0.6-0.1,0.9c0,1,0.6,2,1.5,2.6l1.5,1l-1.8-0.1c-0.2,0-0.5,0-0.8-0.1c0.3,1.2,1.1,2,2.2,2.2l2.1,0.4l-2.1,0.5
			c-0.3,0.1-0.8,0.1-1.2,0.1c0.5,0.9,1.5,1.4,2.6,1.4l1.4,0l-1.1,0.9C16.6,25.5,15.3,26.1,14,26.3z"/>
	</g>
</g>
</svg>
