<?xml version="1.0" encoding="utf-8"?>
<!-- Generator: Adobe Illustrator 18.1.0, SVG Export Plug-In . SVG Version: 6.00 Build 0)  -->
<svg version="1.1" baseProfile="tiny" id="Layer_1" xmlns="http://www.w3.org/2000/svg" xmlns:xlink="http://www.w3.org/1999/xlink"
	 x="0px" y="0px" width="40px" height="40px" viewBox="0 0 40 40" xml:space="preserve">
<g>
	<path fill="#707070" d="M27.3,34.6H13.8c-0.8,0-1.3-0.2-1.4-0.7c-0.1-0.5,0.2-0.9,0.9-1.4l5.2-3.3c0,0,0.1-0.1,0.1-0.1v-5.8
		c-1.5-0.4-2.9-1.3-4.2-2.6c-0.4,0.2-0.8,0.3-1,0.4c-0.5,0.1-0.9,0.2-1.3,0.2c-2.6-0.1-4.9-1.6-5.9-4c-0.3-0.7-0.4-1.4-0.4-2.1
		c0-1.7,0.9-3.7,3.5-4.4c0.2,0,0.4-0.1,0.6-0.1c-0.1-1-0.2-2-0.2-2.9c0-0.6,0-1,0.5-1h21.1c0.5,0,0.5,0.5,0.5,1c0,1-0.1,1.9-0.2,2.9
		c0.2,0,0.4,0.1,0.6,0.1c2.6,0.7,3.5,2.7,3.5,4.4c0,0.7-0.1,1.4-0.4,2.1L35,17.4c-1,2.3-3.3,3.8-5.9,3.9h0c-0.5,0-0.9-0.1-1.3-0.2
		c-0.4-0.1-0.7-0.2-1-0.4c-1.3,1.3-2.7,2.1-4.2,2.6v5.8l5.3,3.4c0.7,0.5,1,0.9,0.9,1.4C28.6,34.4,28.1,34.6,27.3,34.6z M13.5,33.6
		c0.1,0,0.2,0,0.3,0h13.5c0.1,0,0.3,0,0.3,0c-0.1-0.1-0.2-0.1-0.3-0.2L22.1,30c-0.4-0.1-0.5-0.5-0.5-0.5v-6.9l0.4-0.1
		c1.6-0.4,3.1-1.2,4.3-2.6l0.3-0.3l0.3,0.2c0.3,0.2,0.7,0.3,1.1,0.4c0.3,0.1,0.7,0.1,1.1,0.1c2.2,0,4.2-1.4,5-3.4l0-0.1
		c0.2-0.5,0.3-1.1,0.3-1.6c0-1.3-0.7-2.9-2.8-3.4c-0.3-0.1-0.6-0.1-0.9-0.1l-0.6,0l0.1-0.6c0.2-1.1,0.3-2.2,0.3-3.3c0,0,0,0,0,0
		H10.5c0,0,0,0,0,0c0,1.1,0.1,2.2,0.3,3.3l0.1,0.6l-0.6,0c-0.4,0-0.7,0-0.9,0.1c-2,0.5-2.7,2.1-2.7,3.4c0,0.6,0.1,1.2,0.4,1.7
		c0.9,2,2.8,3.4,5,3.4c0.3,0,0.7,0,1.1-0.1c0.4-0.1,0.8-0.3,1.1-0.4l0.3-0.2l0.3,0.3c1.3,1.4,2.8,2.3,4.3,2.6l0.4,0.1V30L19,30
		l-5.3,3.4C13.6,33.5,13.5,33.5,13.5,33.6z M11.9,19.4c-1.2,0-2.8-1-3.5-2.7c-0.2-0.5-0.3-1-0.3-1.5c0-1.5,0.9-2.4,1.8-2.6
		c0.1,0,0.3-0.1,0.5-0.1l0.1,0c0.1,0,0.1,0,0.2,0l0.3,0l0.2,0.3c0.5,2,1.3,3.7,2.3,5.3l0.2,0.4l-0.3,0.3c-0.3,0.2-0.6,0.4-0.9,0.4
		C12.3,19.4,12.1,19.4,11.9,19.4C11.9,19.4,11.9,19.4,11.9,19.4z M10.2,13.6c-0.1,0-0.1,0-0.2,0c-0.5,0.1-1,0.7-1,1.6
		c0,0.4,0.1,0.8,0.2,1.1c0.5,1.3,1.8,2,2.5,2c0.2,0,0.3,0,0.4,0c0,0,0,0,0,0C11.4,16.9,10.7,15.3,10.2,13.6z M29.2,19.4
		c-0.2,0-0.4,0-0.6-0.1c-0.3-0.1-0.6-0.2-0.8-0.4l-0.3-0.3l0.2-0.4c1-1.5,1.8-3.3,2.3-5.2l0.1-0.3l0.3,0c0.1,0,0.2,0,0.2,0l0.1,0
		c0.2,0,0.4,0,0.5,0.1c0.8,0.2,1.7,1,1.8,2.5c0,0.1,0,1.1-0.4,1.6C32,18.3,30.3,19.4,29.2,19.4z M28.8,18.3
		C28.8,18.3,28.8,18.3,28.8,18.3c0.1,0,0.2,0,0.3,0c0,0,0,0,0,0c0.7,0,2-0.8,2.6-2.1c0.1-0.2,0.2-0.7,0.2-1.1c0-0.9-0.5-1.5-1-1.6
		c-0.1,0-0.1,0-0.2,0C30.4,15.3,29.7,16.9,28.8,18.3z"/>
</g>
</svg>
