<?xml version="1.0" encoding="utf-8"?>
<!-- Generator: Adobe Illustrator 18.1.0, SVG Export Plug-In . SVG Version: 6.00 Build 0)  -->
<svg version="1.1" baseProfile="tiny" id="Layer_1" xmlns="http://www.w3.org/2000/svg" xmlns:xlink="http://www.w3.org/1999/xlink"
	 x="0px" y="0px" viewBox="0 0 117 57" xml:space="preserve">
<g>
	<rect fill="#FFFFFF" width="117" height="57"/>
	<g>
		<g>
			<g>
				<g>
					<rect x="1" y="1" fill="#00535E" width="115" height="44"/>
					<rect x="1" y="46" fill="#A99F91" width="115" height="10"/>
					<path fill="#FFFFFF" d="M8,48h2.7c0.9,0,1.4,0.6,1.4,1.5c0,0.7-0.1,1.3-1.1,1.5v0c1,0.1,0.6,0.3,0.9,0.9l0.7,1.1h-1.4l-0.3-0.9
						c-0.3-0.8-0.4-1.1-0.9-1.1H10v2H8V48z M9.6,50.5H10c0.4,0,1,0,1-0.6c0-0.5-0.5-0.5-1-0.5H9.6V50.5z"/>
					<polygon fill="#FFFFFF" points="19,48 22,48 22,49 20,49 20,50 22,50 22,51 20,51 20,52 22,52 22,53 19,53 					"/>
					<path fill="#FFFFFF" d="M30.3,48H32l1.9,5h-1.5l-0.4-1h-1.9l-0.4,1h-1.4L30.3,48z M31.1,49.5L31.1,49.5l-0.7,1.9h1.3L31.1,49.5
						z"/>
					<polygon fill="#FFFFFF" points="40,48 41,48 41,52 43,52 43,53 40,53 					"/>
					<polygon fill="#FFFFFF" points="55,48 59,48 59,49 57,49 57,50 59,50 59,51 57,51 57,52 59,52 59,53 55,53 					"/>
					<path fill="#FFFFFF" d="M65.5,52.2c0.3,0.2,0.8,0.3,1.4,0.3c0.4,0,0.8-0.1,0.8-0.5c0-0.9-2.4-0.3-2.4-2.1
						c0-1.2,1.2-1.5,2.2-1.5c0.5,0,1,0.1,1.3,0.2l-0.1,1c-0.3-0.2-0.7-0.2-1.1-0.2c-0.3,0-0.9,0-0.9,0.5c0,0.8,2.4,0.3,2.4,2
						c0,1.3-1.1,1.6-2.2,1.6c-0.5,0-1-0.1-1.5-0.2L65.5,52.2z"/>
					<polygon fill="#FFFFFF" points="76,49 75,49 75,48 79,48 79,49 78,49 78,53 76,53 					"/>
					<path fill="#FFFFFF" d="M86.1,48h1.6l1.9,5h-1.5l-0.4-1H86l-0.4,1h-1.4L86.1,48z M86.9,49.5L86.9,49.5l-0.7,1.9h1.3L86.9,49.5z
						"/>
					<polygon fill="#FFFFFF" points="96,49 95,49 95,48 99,48 99,49 98,49 98,53 96,53 					"/>
					<polygon fill="#FFFFFF" points="105,48 109,48 109,49 106,49 106,50 108,50 108,51 106,51 106,52 109,52 109,53 105,53 					
						"/>
					<path fill="#FFFFFF" d="M24,9.1c-2-1.1-3.8-1.8-5.9-1.8c-4.4,0-7.4,3.1-7.4,7.6c0,4.6,3.1,8.8,8,8.8c2.4,0,4.7-0.8,6.7-1.8h0.1
						l-1.6,3.4c-1.5,0.7-3.1,0.9-4.8,0.9c-7.4,0-12.1-4.1-12.1-10.8c0-6.4,4.7-10.7,11.1-10.7c1.9,0,3.8,0.3,5.8,0.8V9.1z"/>
					<path fill="#FFFFFF" d="M47.8,17.7c0,4.9-4.1,8.4-8.9,8.4c-4.8,0-8.8-3.4-8.8-8.3c0-4.5,4-8.3,9.1-8.2
						C44.2,9.6,47.8,13.4,47.8,17.7 M32.8,17.6c0,3.3,2.4,6.8,6.2,6.8c3.7,0,6-2.7,6-6.2c0-3.5-2.3-6.9-6.1-6.9
						C35.2,11.3,32.8,14,32.8,17.6"/>
					<path fill="#FFFFFF" d="M55,22.6c0,1.3,0,2.3,2,3V26h-5v-0.4c2-0.7,2-1.7,2-3v-9.5c0-1.3,0-2.3-2-3V10h4v0
						c0,0.3,0.1,0.4,0.3,0.6l0.1,0.5l8.6,11v-9.1c0-1.3,0-2.3-1-3V10h4v0.1c-1,0.7-1,1.7-1,3v13.4c-2-0.6-2.5-1.4-3.6-2.7L55,13.4
						V22.6z"/>
					<path fill="#FFFFFF" d="M90.5,17.7c0,4.9-4.1,8.4-8.9,8.4c-4.8,0-8.8-3.4-8.8-8.3c0-4.5,4-8.3,9.1-8.2
						C86.9,9.6,90.5,13.4,90.5,17.7 M75.5,17.6c0,3.3,2.4,6.8,6.2,6.8c3.7,0,6-2.7,6-6.2c0-3.5-2.3-6.9-6.1-6.9
						C77.9,11.3,75.5,14,75.5,17.6"/>
					<path fill="#FFFFFF" d="M100.9,10c3.2,0,5,1.7,5,3.8c0,2.1-1.9,3.8-3.9,4.2l3.5,4.5c1,1.2,2.5,2.5,3.9,3.5h-2.2
						c-1.3,0-2.1-0.5-2.8-1.3l-3-3.7l-2.2-3.4c1.9-0.3,4.2-1.2,4.2-3.4c0-1.7-1.3-2.7-3-2.7c-0.6,0-1.5,0.1-1.5,0.2v10.7
						c0,1.1,0,2.8,1,3.3V26h-5v-0.4c1-0.4,1-2.2,1-3.3v-9c0-1.1,0-2.8-1-3.3V10H100.9z"/>
					<path fill="#FFFFFF" d="M17,30.6c-1-0.6-1.9-0.9-3-0.9c-2.3,0-3.9,1.6-3.9,3.9c0,2.3,1.7,4.4,4.3,4.4c1.3,0,2.6,0,3.6-1h0
						l-0.9,1.9c-0.8,0.4-1.7,0.5-2.6,0.5c-4,0-6.5-2.1-6.5-5.5c0-3.3,2.4-5.5,5.9-5.5c1,0,2,0.2,3,0.4V30.6z"/>
					<path fill="#FFFFFF" d="M29.9,34.8c0,2.6-2.3,4.5-5.1,4.5c-2.7,0-5-1.8-5-4.5c0-2.5,2.3-4.5,5.2-4.4
						C27.9,30.4,29.9,32.5,29.9,34.8 M21.4,34.7c0,1.8,1.4,3.7,3.5,3.7c2.1,0,3.4-1.4,3.4-3.4c0-1.9-1.3-3.7-3.5-3.7
						C22.8,31.3,21.4,32.8,21.4,34.7"/>
					<path fill="#FFFFFF" d="M39.9,31.4c0.1-0.3,0.1-0.5,0.1-0.8V31h2v-0.3c0,0.1-0.2,0.5-0.2,0.8l1.2,6.3c0.1,0.6,0,1,1,1.3V39h-3
						v0.1c1-0.1,0.6-0.5,0.6-1l-0.8-6.2l-3.1,7.4c-0.7-0.5-0.9-0.8-1.2-1.6l-2.6-5.8l-0.6,5.5c-0.1,0.8-0.3,1.4,0.7,1.6V39h-3v0.1
						c1-0.5,0.8-1.1,0.9-1.8l0.6-5.4c0.1-0.4,0.4-0.9-0.6-1.2V31h3v-0.4c0,0.2,0,0.4,0.1,0.6l2.5,5.7L39.9,31.4z"/>
					<path fill="#FFFFFF" d="M53.7,31.4c0.1-0.3,0.3-0.5,0.3-0.8V31h2v-0.3c0,0.1-0.3,0.5-0.3,0.8l0.8,6.3c0.1,0.6,0.5,1,0.5,1.3V39
						h-2v0.1c0-0.1,0.5-0.5,0.5-1l-0.8-6.2l-3.1,7.4c-0.7-0.5-0.9-0.8-1.2-1.6l-2.6-5.8l-0.9,5.5c-0.1,0.8,0.3,1.4,0.3,1.6V39h-2
						v0.1c1-0.5,0.7-1.1,0.8-1.8l0.7-5.4c0.1-0.4,0.5-0.9-0.5-1.2V31h3v-0.4c0,0.2-0.1,0.4,0,0.6l2.5,5.7L53.7,31.4z"/>
					<path fill="#FFFFFF" d="M61,38l1.9-0.1c0.9,0.1,2.1,0,2.7-1h0l-0.6,2H59v0.1c1-0.2,1-1.2,1-1.8v-4.9c0-0.6,0-1.5-1-1.8V31h4.8
						c0.2,0,0.5,0,0.6,0H64v1h0.4c-0.4,0-1.2-0.5-1.8-0.5c-0.5,0-0.6,0.1-1.6,0.1V34h2c0.2,0,0.4,0,0.6,0H64v1h-0.4
						c-0.2,0-0.8,0-1.2,0H61V38z"/>
					<path fill="#FFFFFF" d="M70.9,31c1.8,0,2.8,0.7,2.8,1.9c0,1.1-1.1,1.9-2.2,2.2l2,2.2C74.1,38,75,39,75.8,39h-1.3
						c-0.7,0-1.2-0.1-1.6-0.6l-1.7-1.9L70,34.7c1.1-0.2,2.4-0.6,2.4-1.8c0-0.9-0.7-1.5-1.6-1.4c-0.3,0-0.8,0.1-0.8,0.1v5.8
						c0,0.6,0,1.5,0,1.8V39h-2v0.1c0-0.2,0-1.2,0-1.8v-4.9c0-0.6,0-1.5,0-1.8V31H70.9z"/>
					<path fill="#FFFFFF" d="M84,32.2c-1-0.5-1.8-0.7-2.7-0.7c-1.9,0-3.3,1.3-3.3,3.2c0,1.9,1.3,3.4,3.5,3.4c1,0,2,0,2.9-1h0
						l-0.7,1.7c-0.6,0.3-1.4,0.5-2.1,0.5c-3.2,0-5.3-1.6-5.3-4.4c0-2.7,2.1-4.4,5-4.4c0.8,0,1.6,0.2,2.6,0.3V32.2z"/>
					<path fill="#FFFFFF" d="M87,32.5c0-0.6,0-1.5-1-1.8V31h3v-0.3c-1,0.2-1,1.2-1,1.8v4.9c0,0.6,0,1.5,1,1.8V39h-3v0.1
						c1-0.2,1-1.2,1-1.8V32.5z"/>
					<path fill="#FFFFFF" d="M94,36l-0.5,1.8c-0.3,0.7-0.5,1.1,0.5,1.3V39h-3v0.1c1-0.4,1-1.1,1.3-1.8l2.1-5.4
						c0.2-0.5,0.6-1-0.4-1.2V31h2.6l3,6.4c0.3,0.7,0.5,1.3,1.5,1.7V39h-3v0.1c1-0.3,0.5-0.4,0.2-1.3L97.4,36H94z M95.7,31.7L94.3,35
						H97L95.7,31.7z"/>
					<path fill="#FFFFFF" d="M106.1,38c0.9,0.1,1.9,0,2.6-1h0l-0.7,2h-6v0.1c1-0.2,1-1.2,1-1.8v-4.9c0-0.6,0-1.5-1-1.8V31h3v-0.3
						c-1,0.2-1,1.2-1,1.8v5.6L106.1,38z"/>
				</g>
			</g>
		</g>
	</g>
</g>
</svg>
