<?xml version="1.0" encoding="utf-8"?>
<!-- Generator: Adobe Illustrator 18.1.1, SVG Export Plug-In . SVG Version: 6.00 Build 0)  -->
<svg version="1.1" id="Layer_1" xmlns="http://www.w3.org/2000/svg" xmlns:xlink="http://www.w3.org/1999/xlink" x="0px" y="0px"
	 width="650px" height="600px" viewBox="0 0 650 600" enable-background="new 0 0 650 600" xml:space="preserve">
<g>
	<path fill="#E94300" d="M560.2,219.5c0,6.2-6.2,12.4-12.4,12.4H170.2c-6.2,0-12.4-6.2-12.4-12.4v-40.2c0-6.2,6.2-12.4,12.4-12.4
		h377.6c6.2,0,12.4,6.2,12.4,12.4V219.5z"/>
	<path fill="#E94300" d="M380.7,312.4H157.9c-6.2,0-12.4-6.2-12.4-12.4c-3.1-9.3,3.1-15.5,12.4-15.5h222.9c6.2,0,12.4,6.2,12.4,12.4
		C393.1,306.2,390,312.4,380.7,312.4z"/>
	<path fill="#E94300" d="M380.7,368.1H157.9c-6.2,0-12.4-6.2-12.4-12.4s6.2-12.4,12.4-12.4h222.9c6.2,0,12.4,6.2,12.4,12.4
		S390,368.1,380.7,368.1z"/>
	<path fill="#E94300" d="M380.7,426.9H157.9c-6.2,0-12.4-6.2-12.4-12.4c0-6.2,6.2-12.4,12.4-12.4h222.9c6.2,0,12.4,6.2,12.4,12.4
		C393.1,420.7,390,426.9,380.7,426.9z"/>
	<g>
		<g>
			<path fill="#E94300" d="M538.6,293.8c9.3,3.1,15.5,9.3,18.6,18.6c3.1,9.3,6.2,15.5,6.2,24.8c0,6.2,0,15.5-3.1,21.7
				c-3.1,6.2-6.2,15.5-12.4,18.6c-6.2,6.2-12.4,9.3-18.6,9.3c-6.2,0-9.3,0-12.4-3.1c-3.1-3.1-3.1-6.2-6.2-9.3
				c-3.1,3.1-6.2,6.2-9.3,9.3c-3.1,3.1-9.3,3.1-12.4,3.1c-6.2,0-12.4-3.1-15.5-6.2s-6.2-12.4-6.2-18.6c0-6.2,0-15.5,3.1-21.7
				c3.1-6.2,6.2-12.4,12.4-15.5c6.2-3.1,12.4-6.2,21.7-6.2c3.1,0,9.3,0,12.4,0s6.2,3.1,9.3,3.1l-6.2,40.2v3.1c0,3.1,0,6.2,3.1,6.2
				c0,0,3.1,3.1,6.2,3.1c6.2,0,9.3-3.1,12.4-6.2c3.1-3.1,6.2-9.3,6.2-15.5s3.1-12.4,3.1-18.6c0-12.4-3.1-21.7-12.4-27.9
				c-6.2-6.2-18.6-9.3-31-9.3c-15.5,0-24.8,3.1-34,9.3c-9.3,9.3-15.5,18.6-18.6,27.9c-3.1,9.3-6.2,18.6-6.2,31
				c0,9.3,3.1,15.5,6.2,24.8c3.1,9.3,9.3,12.4,15.5,15.5c6.2,3.1,15.5,3.1,24.8,3.1s18.6-3.1,27.9-6.2l3.1,9.3
				c-6.2,3.1-9.3,3.1-15.5,3.1s-9.3,0-15.5,0c-12.4,0-21.7-3.1-31-6.2c-9.3-6.2-15.5-12.4-21.7-21.7c-6.2-9.3-9.3-12.4-9.3-24.8
				c0-12.4,3.1-21.7,6.2-34c6.2-12.4,12.4-21.7,24.8-27.9c12.4-9.3,24.8-12.4,43.3-12.4C520,287.6,529.3,290.7,538.6,293.8z
				 M504.5,374.3c3.1-3.1,6.2-6.2,6.2-9.3l6.2-34c-3.1,0-6.2-3.1-9.3-3.1c-9.3,0-15.5,3.1-18.6,12.4c-3.1,6.2-6.2,15.5-6.2,24.8
				c0,9.3,3.1,15.5,9.3,15.5C498.3,377.4,501.4,377.4,504.5,374.3z"/>
			<path fill="#E94300" d="M492.1,423.8c-12.4,0-21.7-3.1-34-9.3c-9.3-6.2-18.6-12.4-21.7-21.7c-6.2-9.3-9.3-18.6-9.3-31
				c0-12.4,3.1-24.8,9.3-37.1s15.5-21.7,24.8-31c15.5-6.2,31-9.3,46.4-9.3c12.4,0,21.7,3.1,31,6.2c9.3,6.2,15.5,12.4,21.7,18.6
				c3.1,9.3,6.2,18.6,6.2,27.9c0,6.2,0,15.5-3.1,24.8c-3.1,9.3-6.2,15.5-12.4,21.7c-6.2,6.2-12.4,9.3-21.7,9.3
				c-6.2,0-12.4-3.1-15.5-6.2c0,0-3.1-3.1-3.1-6.2c-3.1,3.1-3.1,3.1-6.2,6.2c-3.1,3.1-9.3,6.2-15.5,6.2c-9.3,0-15.5-3.1-18.6-9.3
				c-3.1-6.2-6.2-12.4-6.2-21.7c0-6.2,0-15.5,3.1-21.7c3.1-6.2,6.2-12.4,12.4-18.6c9.3-6.2,15.5-6.2,24.8-6.2c3.1,0,9.3,0,12.4,0
				c3.1,0,6.2,3.1,12.4,6.2l3.1,3.1l-6.2,40.2v3.1c0,3.1,0,3.1,0,3.1s0,0,3.1,0c3.1,0,6.2-3.1,9.3-6.2c3.1-3.1,6.2-9.3,6.2-15.5
				c0-6.2,3.1-12.4,3.1-18.6c0-12.4-3.1-21.7-9.3-27.9c-6.2-6.2-15.5-9.3-31-9.3c-12.4,0-24.8,3.1-34,9.3
				c-9.3,6.2-15.5,15.5-18.6,24.8c-3.1,9.3-6.2,18.6-6.2,27.9c0,9.3,3.1,15.5,6.2,21.7c3.1,6.2,9.3,12.4,15.5,15.5
				c12.4,6.2,31,6.2,49.5,0h3.1c0,0,0,0,3.1,3.1l3.1,9.3c0,3.1,0,3.1-3.1,3.1c-6.2,3.1-12.4,3.1-15.5,3.1
				C504.5,423.8,498.3,423.8,492.1,423.8z M507.6,290.7c-15.5,0-31,3.1-40.2,12.4c-9.3,6.2-18.6,15.5-24.8,27.9
				c-6.2,12.4-6.2,21.7-6.2,34c0,9.3,3.1,21.7,6.2,27.9c6.2,9.3,12.4,15.5,18.6,18.6c9.3,6.2,18.6,6.2,27.9,6.2c6.2,0,12.4,0,15.5,0
				c3.1,0,9.3-3.1,12.4-3.1v-3.1c-9.3,3.1-18.6,3.1-27.9,3.1c-9.3,0-18.6-3.1-27.9-6.2c-6.2-3.1-12.4-9.3-18.6-18.6
				c-3.1-6.2-6.2-15.5-6.2-24.8c0-9.3,3.1-21.7,6.2-31c3.1-9.3,12.4-18.6,21.7-27.9c9.3-6.2,21.7-9.3,37.1-9.3
				c15.5,0,24.8,3.1,34,12.4c9.3,6.2,12.4,18.6,12.4,31c0,6.2,0,12.4-3.1,18.6c0,6.2-3.1,12.4-6.2,18.6c-3.1,6.2-9.3,9.3-15.5,9.3
				c-3.1,0-6.2,0-9.3-3.1c0-3.1-3.1-6.2-3.1-9.3v-3.1l6.2-40.2c-3.1,0-6.2-3.1-9.3-3.1c-3.1,0-6.2,0-9.3,0c-9.3,0-15.5,3.1-18.6,6.2
				c-6.2,3.1-9.3,9.3-12.4,15.5c-3.1,6.2-3.1,12.4-3.1,18.6c0,6.2,3.1,12.4,6.2,15.5c3.1,3.1,6.2,6.2,12.4,6.2c3.1,0,9.3,0,12.4-3.1
				s6.2-6.2,9.3-9.3l-3.1,3.1c-3.1,3.1-9.3,6.2-15.5,6.2c-6.2,0-12.4-3.1-12.4-18.6c0-9.3,3.1-18.6,6.2-27.9
				c3.1-9.3,12.4-12.4,21.7-12.4c3.1,0,6.2,0,12.4,3.1l3.1,3.1l-6.2,34l0,0c0,3.1-3.1,3.1-3.1,6.2h3.1c0,0,3.1,0,3.1,3.1
				s3.1,6.2,3.1,9.3c3.1,3.1,6.2,3.1,9.3,3.1c6.2,0,12.4-3.1,18.6-6.2c6.2-6.2,9.3-12.4,9.3-18.6c3.1-6.2,3.1-15.5,3.1-21.7
				c0-9.3-3.1-18.6-6.2-24.8c-3.1-6.2-9.3-12.4-18.6-15.5C529.3,293.8,520,290.7,507.6,290.7z M504.5,331c-6.2,0-12.4,3.1-15.5,9.3
				c-3.1,6.2-6.2,15.5-6.2,24.8c0,12.4,6.2,12.4,6.2,12.4c3.1,0,6.2,0,9.3-3.1c3.1-3.1,3.1-6.2,6.2-9.3l6.2-31
				C510.7,331,507.6,331,504.5,331z"/>
		</g>
	</g>
	<path fill="#E94300" d="M597.4,519.8H52.6l0,0c0,0,0,0-3.1,0C21.7,519.8,0,498.1,0,470.2V166.9c0-21.7,18.6-40.2,40.2-40.2h27.9
		v-6.2c0-21.7,18.6-40.2,40.2-40.2h501.4c21.7,0,40.2,18.6,40.2,40.2v349.8C650,498.1,628.3,519.8,597.4,519.8z M102.1,485.7h498.3
		c9.3,0,15.5-6.2,15.5-15.5V120.5c0-3.1-3.1-3.1-3.1-3.1H108.3c-3.1,0-3.1,3.1-3.1,3.1v349.8C102.1,473.3,102.1,479.5,102.1,485.7z
		 M40.2,163.8c-3.1,0-3.1,3.1-3.1,3.1v303.3c0,9.3,6.2,15.5,15.5,15.5s15.5-6.2,15.5-15.5V163.8H40.2z"/>
</g>
</svg>
