<?xml version="1.0" encoding="utf-8"?>
<!-- Generator: Adobe Illustrator 18.1.0, SVG Export Plug-In . SVG Version: 6.00 Build 0)  -->
<svg version="1.1" baseProfile="tiny" id="Layer_1" xmlns="http://www.w3.org/2000/svg" xmlns:xlink="http://www.w3.org/1999/xlink"
	 x="0px" y="0px" viewBox="0 0 21 15" xml:space="preserve">
<g>
	<path fill="#B13B0B" d="M18.1,4.9c0,0.2-0.2,0.4-0.4,0.4H5.5c-0.2,0-0.4-0.2-0.4-0.4V3.6c0-0.2,0.2-0.4,0.4-0.4h12.2
		c0.2,0,0.4,0.2,0.4,0.4V4.9z"/>
	<path fill="#B13B0B" d="M12.3,7.9H5.1c-0.2,0-0.4-0.2-0.4-0.4C4.6,7.2,4.8,7,5.1,7h7.2c0.2,0,0.4,0.2,0.4,0.4
		C12.7,7.7,12.6,7.9,12.3,7.9z"/>
	<path fill="#B13B0B" d="M12.3,9.7H5.1c-0.2,0-0.4-0.2-0.4-0.4s0.2-0.4,0.4-0.4h7.2c0.2,0,0.4,0.2,0.4,0.4S12.6,9.7,12.3,9.7z"/>
	<path fill="#B13B0B" d="M12.3,11.6H5.1c-0.2,0-0.4-0.2-0.4-0.4s0.2-0.4,0.4-0.4h7.2c0.2,0,0.4,0.2,0.4,0.4S12.6,11.6,12.3,11.6z"/>
	<g>
		<g>
			<path fill="#B13B0B" d="M17.4,7.3c0.3,0.1,0.5,0.3,0.6,0.6c0.1,0.3,0.2,0.5,0.2,0.8c0,0.2,0,0.5-0.1,0.7
				c-0.1,0.2-0.2,0.5-0.4,0.6c-0.2,0.2-0.4,0.3-0.6,0.3c-0.2,0-0.3,0-0.4-0.1c-0.1-0.1-0.1-0.2-0.2-0.3c-0.1,0.1-0.2,0.2-0.3,0.3
				c-0.1,0.1-0.3,0.1-0.4,0.1c-0.2,0-0.4-0.1-0.5-0.2c-0.1-0.1-0.2-0.4-0.2-0.6c0-0.2,0-0.5,0.1-0.7c0.1-0.2,0.2-0.4,0.4-0.5
				c0.2-0.1,0.4-0.2,0.7-0.2c0.1,0,0.3,0,0.4,0c0.1,0,0.2,0.1,0.3,0.1l-0.2,1.3l0,0.1c0,0.1,0,0.2,0.1,0.2c0,0,0.1,0.1,0.2,0.1
				c0.2,0,0.3-0.1,0.4-0.2c0.1-0.1,0.2-0.3,0.2-0.5c0-0.2,0.1-0.4,0.1-0.6c0-0.4-0.1-0.7-0.4-0.9c-0.2-0.2-0.6-0.3-1-0.3
				c-0.5,0-0.8,0.1-1.1,0.3C15,8,14.8,8.3,14.7,8.6c-0.1,0.3-0.2,0.6-0.2,1c0,0.3,0.1,0.5,0.2,0.8s0.3,0.4,0.5,0.5
				C15.4,11,15.7,11,16,11c0.3,0,0.6-0.1,0.9-0.2l0.1,0.3c-0.2,0.1-0.3,0.1-0.5,0.1c-0.2,0-0.3,0-0.5,0c-0.4,0-0.7-0.1-1-0.2
				c-0.3-0.2-0.5-0.4-0.7-0.7S14,9.9,14,9.5c0-0.4,0.1-0.7,0.2-1.1c0.2-0.4,0.4-0.7,0.8-0.9c0.4-0.3,0.8-0.4,1.4-0.4
				C16.8,7.1,17.1,7.2,17.4,7.3z M16.3,9.9c0.1-0.1,0.2-0.2,0.2-0.3l0.2-1.1c-0.1,0-0.2-0.1-0.3-0.1c-0.3,0-0.5,0.1-0.6,0.4
				c-0.1,0.2-0.2,0.5-0.2,0.8c0,0.3,0.1,0.5,0.3,0.5C16.1,10,16.2,10,16.3,9.9z"/>
			<path fill="#B13B0B" d="M15.9,11.5c-0.4,0-0.7-0.1-1.1-0.3c-0.3-0.2-0.6-0.4-0.7-0.7c-0.2-0.3-0.3-0.6-0.3-1
				c0-0.4,0.1-0.8,0.3-1.2c0.2-0.4,0.5-0.7,0.8-1C15.4,7.1,15.9,7,16.4,7c0.4,0,0.7,0.1,1,0.2c0.3,0.2,0.5,0.4,0.7,0.6
				c0.1,0.3,0.2,0.6,0.2,0.9c0,0.2,0,0.5-0.1,0.8c-0.1,0.3-0.2,0.5-0.4,0.7c-0.2,0.2-0.4,0.3-0.7,0.3c-0.2,0-0.4-0.1-0.5-0.2
				c0,0-0.1-0.1-0.1-0.2c-0.1,0.1-0.1,0.1-0.2,0.2c-0.1,0.1-0.3,0.2-0.5,0.2c-0.3,0-0.5-0.1-0.6-0.3C15.1,10,15,9.8,15,9.5
				c0-0.2,0-0.5,0.1-0.7c0.1-0.2,0.2-0.4,0.4-0.6C15.8,8,16,8,16.3,8c0.1,0,0.3,0,0.4,0c0.1,0,0.2,0.1,0.4,0.2c0,0,0.1,0.1,0.1,0.1
				L17,9.6l0,0.1c0,0.1,0,0.1,0,0.1c0,0,0,0,0.1,0c0.1,0,0.2-0.1,0.3-0.2c0.1-0.1,0.2-0.3,0.2-0.5c0-0.2,0.1-0.4,0.1-0.6
				c0-0.4-0.1-0.7-0.3-0.9c-0.2-0.2-0.5-0.3-1-0.3c-0.4,0-0.8,0.1-1.1,0.3c-0.3,0.2-0.5,0.5-0.6,0.8c-0.1,0.3-0.2,0.6-0.2,0.9
				c0,0.3,0.1,0.5,0.2,0.7c0.1,0.2,0.3,0.4,0.5,0.5c0.4,0.2,1,0.2,1.6,0c0,0,0.1,0,0.1,0c0,0,0,0,0.1,0.1l0.1,0.3
				c0,0.1,0,0.1-0.1,0.1c-0.2,0.1-0.4,0.1-0.5,0.1C16.3,11.5,16.1,11.5,15.9,11.5z M16.4,7.2c-0.5,0-1,0.1-1.3,0.4
				c-0.3,0.2-0.6,0.5-0.8,0.9c-0.2,0.4-0.2,0.7-0.2,1.1c0,0.3,0.1,0.7,0.2,0.9c0.2,0.3,0.4,0.5,0.6,0.6c0.3,0.2,0.6,0.2,0.9,0.2
				c0.2,0,0.4,0,0.5,0c0.1,0,0.3-0.1,0.4-0.1l0-0.1c-0.3,0.1-0.6,0.1-0.9,0.1c-0.3,0-0.6-0.1-0.9-0.2c-0.2-0.1-0.4-0.3-0.6-0.6
				c-0.1-0.2-0.2-0.5-0.2-0.8c0-0.3,0.1-0.7,0.2-1c0.1-0.3,0.4-0.6,0.7-0.9c0.3-0.2,0.7-0.3,1.2-0.3c0.5,0,0.8,0.1,1.1,0.4
				c0.3,0.2,0.4,0.6,0.4,1c0,0.2,0,0.4-0.1,0.6c0,0.2-0.1,0.4-0.2,0.6c-0.1,0.2-0.3,0.3-0.5,0.3c-0.1,0-0.2,0-0.3-0.1
				c0-0.1-0.1-0.2-0.1-0.3l0-0.1l0.2-1.3c-0.1,0-0.2-0.1-0.3-0.1c-0.1,0-0.2,0-0.3,0c-0.3,0-0.5,0.1-0.6,0.2
				c-0.2,0.1-0.3,0.3-0.4,0.5c-0.1,0.2-0.1,0.4-0.1,0.6c0,0.2,0.1,0.4,0.2,0.5c0.1,0.1,0.2,0.2,0.4,0.2c0.1,0,0.3,0,0.4-0.1
				c0.1-0.1,0.2-0.2,0.3-0.3c0,0-0.1,0.1-0.1,0.1c-0.1,0.1-0.3,0.2-0.5,0.2c-0.2,0-0.4-0.1-0.4-0.6c0-0.3,0.1-0.6,0.2-0.9
				c0.1-0.3,0.4-0.4,0.7-0.4c0.1,0,0.2,0,0.4,0.1c0,0,0.1,0.1,0.1,0.1l-0.2,1.1c0,0,0,0,0,0c0,0.1-0.1,0.1-0.1,0.2c0,0,0.1,0,0.1,0
				c0,0,0.1,0,0.1,0.1c0,0.1,0.1,0.2,0.1,0.3c0.1,0.1,0.2,0.1,0.3,0.1c0.2,0,0.4-0.1,0.6-0.2c0.2-0.2,0.3-0.4,0.3-0.6
				c0.1-0.2,0.1-0.5,0.1-0.7c0-0.3-0.1-0.6-0.2-0.8c-0.1-0.2-0.3-0.4-0.6-0.5C17.1,7.3,16.8,7.2,16.4,7.2z M16.3,8.5
				c-0.2,0-0.4,0.1-0.5,0.3c-0.1,0.2-0.2,0.5-0.2,0.8c0,0.4,0.2,0.4,0.2,0.4c0.1,0,0.2,0,0.3-0.1c0.1-0.1,0.1-0.2,0.2-0.3l0.2-1
				C16.5,8.5,16.4,8.5,16.3,8.5z"/>
		</g>
	</g>
	<path fill="#B13B0B" d="M19.3,14.6H1.7v0c0,0,0,0-0.1,0C0.7,14.6,0,13.9,0,13V3.2c0-0.7,0.6-1.3,1.3-1.3h0.9V1.7
		c0-0.7,0.6-1.3,1.3-1.3h16.2C20.4,0.4,21,1,21,1.7V13C21,13.9,20.3,14.6,19.3,14.6z M3.3,13.5h16.1c0.3,0,0.5-0.2,0.5-0.5V1.7
		c0-0.1-0.1-0.1-0.1-0.1H3.5c-0.1,0-0.1,0.1-0.1,0.1V13C3.3,13.1,3.3,13.3,3.3,13.5z M1.3,3.1c-0.1,0-0.1,0.1-0.1,0.1V13
		c0,0.3,0.2,0.5,0.5,0.5s0.5-0.2,0.5-0.5V3.1H1.3z"/>
</g>
</svg>
