<?xml version="1.0" encoding="utf-8"?>
<!-- Generator: Adobe Illustrator 18.1.0, SVG Export Plug-In . SVG Version: 6.00 Build 0)  -->
<svg version="1.1" baseProfile="tiny" id="Layer_1" xmlns="http://www.w3.org/2000/svg" xmlns:xlink="http://www.w3.org/1999/xlink"
	 x="0px" y="0px" width="19px" height="17.9px" viewBox="0 0 19 17.9" xml:space="preserve">
<g>
	<path fill="#B13B0B" d="M14.9,2.9h-0.6V0.8c0-0.2-0.1-0.3-0.3-0.3H5c-0.2,0-0.3,0.1-0.3,0.3v2.1H4.2V0.8C4.2,0.4,4.6,0,5,0h9
		c0.5,0,0.8,0.4,0.8,0.8V2.9z"/>
	<path fill="#B13B0B" d="M14.1,17.9h-6l-3.9-3.9V7.8h0.6v6.1l3.5,3.5h5.8c0.2,0,0.3-0.1,0.3-0.3V7.8h0.6v9.3
		C14.9,17.6,14.5,17.9,14.1,17.9z"/>
	<rect x="6" y="7.8" fill="#B13B0B" width="7.1" height="0.6"/>
	<rect x="6" y="9.8" fill="#B13B0B" width="7.1" height="0.6"/>
	<rect x="6" y="11.9" fill="#B13B0B" width="7.1" height="0.6"/>
	<g>
		<path fill="#B13B0B" d="M17.7,12.1h-1.8V10h1.1V6H2.1v4h1.1v2.1H1.3c-0.7,0-1.3-0.6-1.3-1.3V5.3C0,4.6,0.6,4,1.3,4h16.4
			C18.4,4,19,4.6,19,5.3v5.5C19,11.5,18.4,12.1,17.7,12.1z"/>
	</g>
	<polygon fill="#B13B0B" points="8.4,17.7 7.9,17.7 7.9,14.2 4.5,14.2 4.5,13.7 8.4,13.7 	"/>
</g>
</svg>
