<?xml version="1.0" encoding="utf-8"?>
<!-- Generator: Adobe Illustrator 18.1.0, SVG Export Plug-In . SVG Version: 6.00 Build 0)  -->
<svg version="1.1" baseProfile="tiny" id="Layer_1" xmlns="http://www.w3.org/2000/svg" xmlns:xlink="http://www.w3.org/1999/xlink"
	 x="0px" y="0px" viewBox="0 0 18 15" xml:space="preserve">
<g>
	<path fill="#B13B0B" d="M16,3.9c0,0.2,0,0.3,0,0.5c0,4.8-3.6,10.3-10.3,10.3c-2,0-3.9-0.6-5.5-1.6c0.3,0,0.6,0,0.9,0
		c1.7,0,3.2-0.6,4.5-1.5C4,11.5,2.6,10.5,2.2,9c0.2,0,0.4,0.1,0.7,0.1c0.3,0,0.6,0,0.9-0.1C2.1,8.6,0.8,7.2,0.8,5.4c0,0,0,0,0,0
		c1,0.3,1.1,0.4,1.7,0.5c-1-0.6-1.6-1.8-1.6-3c0-0.7,0.2-1.3,0.5-1.8c1.8,2.2,4.4,3.6,7.4,3.8C8.8,4.5,8.8,4.2,8.8,4
		c0-2,1.6-3.6,3.6-3.6c1,0,2,0.4,2.6,1.1c0.8-0.2,1.6-0.5,2.3-0.9c-0.3,0.8-0.8,1.5-1.6,2c0.7-0.1,1.4-0.3,2.1-0.6
		C17.3,2.8,16.7,3.4,16,3.9z"/>
</g>
</svg>
