<?xml version="1.0" encoding="utf-8"?>
<!-- Generator: Adobe Illustrator 18.1.1, SVG Export Plug-In . SVG Version: 6.00 Build 0)  -->
<svg version="1.1" id="Layer_1" xmlns="http://www.w3.org/2000/svg" xmlns:xlink="http://www.w3.org/1999/xlink" x="0px" y="0px"
	 width="650px" height="600px" viewBox="0 0 650 600" enable-background="new 0 0 650 600" xml:space="preserve">
<g>
	<path fill="#E94300" d="M577.8,170c0,7.2,0,10.8,0,18.1c0,173.3-130,371.9-371.9,371.9C133.6,560,65,538.3,7.2,502.2
		c10.8,0,21.7,0,32.5,0c61.4,0,115.6-21.7,162.5-54.2c-57.8-3.6-108.3-39.7-122.8-93.9c7.2,0,14.4,3.6,25.3,3.6s21.7,0,32.5-3.6
		c-61.4-14.4-108.3-65-108.3-130l0,0C65,235,68.6,238.6,90.3,242.2c-36.1-21.7-57.8-65-57.8-108.3c0-25.3,7.2-46.9,18.1-65
		c65,79.4,158.9,130,267.2,137.2c0-14.4,0-25.3,0-32.5c0-72.2,57.8-130,130-130c36.1,0,72.2,14.4,93.9,39.7
		c28.9-7.2,57.8-18.1,83.1-32.5c-10.8,28.9-28.9,54.2-57.8,72.2c25.3-3.6,50.6-10.8,75.8-21.7C624.7,130.3,603.1,151.9,577.8,170z"
		/>
</g>
</svg>
