<?xml version="1.0" encoding="utf-8"?>
<!-- Generator: Adobe Illustrator 18.1.0, SVG Export Plug-In . SVG Version: 6.00 Build 0)  -->
<svg version="1.1" baseProfile="tiny" id="Layer_1" xmlns="http://www.w3.org/2000/svg" xmlns:xlink="http://www.w3.org/1999/xlink"
	 x="0px" y="0px" width="18px" height="14px" viewBox="0 0 18 14" xml:space="preserve">
<g>
	<path fill="#B13B0B" d="M14.8,10.3c0.2-0.9-0.4-1.4-1.3-1.6c-0.9-0.2-1.5-0.6-1-1.2c1.7-1.7,0.4-3.7-1.1-3.7s-2.8,2-1.1,3.7
		c0.6,0.6-0.1,1-1,1.2C8.4,8.9,7.8,9.4,8,10.3H14.8z"/>
	<path fill="#B13B0B" d="M15.6,0.3H2.4C1.1,0.3,0,1.4,0,2.7v8.6c0,1.3,1.1,2.4,2.4,2.4h13.2c1.3,0,2.4-1.1,2.4-2.4V2.7
		C18,1.4,16.9,0.3,15.6,0.3z M17.2,11.3c0,0.9-0.7,1.6-1.6,1.6H2.4c-0.9,0-1.6-0.7-1.6-1.6V2.7c0-0.9,0.7-1.6,1.6-1.6h13.2
		c0.9,0,1.6,0.7,1.6,1.6V11.3z"/>
	<path fill="#B13B0B" d="M7.6,3.9H3.4C3.2,3.9,3,4.1,3,4.3c0,0.2,0.2,0.4,0.4,0.4h4.2C7.8,4.7,8,4.5,8,4.3C8,4.1,7.8,3.9,7.6,3.9z"
		/>
	<path fill="#B13B0B" d="M7,6.7H3.4C3.2,6.7,3,6.9,3,7.1s0.2,0.4,0.4,0.4H7c0.2,0,0.4-0.2,0.4-0.4S7.2,6.7,7,6.7z"/>
	<path fill="#B13B0B" d="M6,9.5H3.4C3.2,9.5,3,9.7,3,9.9c0,0.2,0.2,0.4,0.4,0.4H6c0.2,0,0.4-0.2,0.4-0.4C6.4,9.7,6.2,9.5,6,9.5z"/>
</g>
<g>
</g>
<g>
</g>
<g>
</g>
<g>
</g>
<g>
</g>
<g>
</g>
<g>
</g>
<g>
</g>
<g>
</g>
<g>
</g>
<g>
</g>
<g>
</g>
<g>
</g>
<g>
</g>
<g>
</g>
</svg>
